HIERARCHY
ROOT Hips
{
	OFFSET 0.000000 105.850000 0.000000
	CHANNELS 6 Xposition Yposition Zposition Yrotation Xrotation Zrotation
	JOINT RightUpLeg
	{
		OFFSET -11.500000 -1.850000 0.000000
		CHANNELS 3 Yrotation Xrotation Zrotation
		JOINT RightLeg
		{
			OFFSET 0.000000 -48.000000 0.000000
			CHANNELS 1 Xrotation
			JOINT RightFoot
			{
				OFFSET 0.000000 -48.000000 0.000000
				CHANNELS 3 Yrotation Xrotation Zrotation
				End Site
				{
					OFFSET 0.000000 -8.000000 19.600000
				}
			}
		}
	}
	JOINT LeftUpLeg
	{
		OFFSET 11.500000 -1.850000 0.000000
		CHANNELS 3 Yrotation Xrotation Zrotation
		JOINT LeftLeg
		{
			OFFSET 0.000000 -48.000000 0.000000
			CHANNELS 1 Xrotation
			JOINT LeftFoot
			{
				OFFSET 0.000000 -48.000000 0.000000
				CHANNELS 3 Yrotation Xrotation Zrotation
				End Site
				{
					OFFSET 0.000000 -8.000000 19.600000
				}
			}
		}
	}
	JOINT Spine
	{
		OFFSET 0.000000 16.654000 0.000000
		CHANNELS 3 Yrotation Xrotation Zrotation
		JOINT Spine1
		{
			OFFSET 0.000000 11.312000 0.000000
			CHANNELS 3 Yrotation Xrotation Zrotation
			JOINT Spine2
			{
				OFFSET 0.000000 11.780000 0.000000
				CHANNELS 3 Yrotation Xrotation Zrotation
				JOINT Spine3
				{
					OFFSET 0.000000 11.312000 0.000000
					CHANNELS 3 Yrotation Xrotation Zrotation
					JOINT Neck
					{
						OFFSET 0.000000 12.091000 0.000000
						CHANNELS 3 Yrotation Xrotation Zrotation
						JOINT Head
						{
							OFFSET 0.000000 9.000000 0.000000
							CHANNELS 3 Yrotation Xrotation Zrotation
							End Site
							{
								OFFSET 0.000000 18.000000 0.000000
							}
						}
					}
					JOINT RightShoulder
					{
						OFFSET -3.500000 8.061000 0.000000
						CHANNELS 3 Yrotation Xrotation Zrotation
						JOINT RightArm
						{
							OFFSET -14.000000 0.000000 0.000000
							CHANNELS 3 Yrotation Xrotation Zrotation
							JOINT RightForeArm
							{
								OFFSET -29.000000 0.000000 0.000000
								CHANNELS 3 Yrotation Xrotation Zrotation
								JOINT RightHand
								{
									OFFSET -28.000000 0.000000 0.000000
									CHANNELS 3 Yrotation Xrotation Zrotation
									End Site
									{
										OFFSET -3.672000 0.562000 0.822000
									}
								}
							}
						}
					}
					JOINT LeftShoulder
					{
						OFFSET 3.500000 8.061000 0.000000
						CHANNELS 3 Yrotation Xrotation Zrotation
						JOINT LeftArm
						{
							OFFSET 14.000000 0.000000 0.000000
							CHANNELS 3 Yrotation Xrotation Zrotation
							JOINT LeftForeArm
							{
								OFFSET 29.000000 0.000000 0.000000
								CHANNELS 3 Yrotation Xrotation Zrotation
								JOINT LeftHand
								{
									OFFSET 28.000000 0.000000 0.000000
									CHANNELS 3 Yrotation Xrotation Zrotation
									End Site
									{
										OFFSET 3.672000 0.562000 0.822000
									}
								}
							}
						}
					}
				}
			}
		}
	}
}
MOTION
Frames: 11
Frame Time: 0.041667
200.29 103.36 57.49 99.55 2.43 -2.2 -7.99 -19.58 6.77 31.25 -15.37 -13.66 0.94 2.97 -28.09 6.49 76.01 11.26 1.73 10.39 4.55 1.2 3.48 1.15 0.3 0.86 1.92 0.48 1.44 -0.14 2.18 0.19 -0.06 8.44 0.48 0.01 36.78 3.68 -7.45 7.9 0.65 -10.17 -2.24 59.57 40.66 15.78 27.0 -1.97 17.6 -2.03 -5.16 9.36 -3.75 -1.04 4.95 -64.45 -28.67 -12.87 -9.82 -6.69 7.97 16.62
201.8 103.71 57.35 99.46 2.47 -1.98 -8.37 -18.16 6.46 30.14 -14.71 -13.52 1.12 3.51 -29.62 6.08 75.25 10.73 0.2 10.45 4.59 1.21 3.36 1.16 0.31 0.83 1.94 0.48 1.38 -0.14 2.19 0.18 -0.06 8.8 0.49 0.1 36.78 3.63 -7.3 7.97 0.49 -9.69 -2.58 59.78 40.64 15.54 26.66 -2.02 17.62 -2.24 -5.0 9.32 -3.81 -0.96 4.92 -64.23 -28.7 -12.58 -9.96 -6.48 8.31 16.07
203.28 104.1 57.28 99.39 2.43 -1.73 -8.96 -16.73 6.15 29.13 -13.91 -13.37 1.17 4.08 -30.95 5.55 74.17 9.9 -1.28 10.2 4.57 1.37 3.29 1.15 0.35 0.81 1.93 0.56 1.35 -0.1 2.27 0.16 0.01 11.79 0.51 0.69 36.62 3.28 -7.11 7.81 0.1 -9.04 -3.08 60.18 41.06 15.06 26.15 -2.11 17.59 -2.72 -4.34 9.05 -4.0 0.58 4.52 -62.65 -29.08 -9.98 -11.35 -5.19 12.32 10.84
204.77 104.49 57.25 99.33 2.35 -1.47 -9.59 -15.26 5.83 28.12 -13.09 -13.21 1.25 4.63 -32.09 4.99 72.74 8.8 -2.67 9.71 4.61 1.44 3.14 1.16 0.37 0.77 1.94 0.59 1.29 -0.09 2.28 0.16 0.02 12.18 0.51 0.76 36.58 3.24 -7.05 7.87 -0.16 -8.64 -3.41 60.51 41.03 14.69 25.85 -2.16 17.49 -2.92 -4.2 9.04 -4.03 0.68 4.47 -62.45 -29.14 -9.7 -11.51 -5.1 12.82 10.25
206.29 104.84 57.25 99.27 2.25 -1.21 -10.2 -13.8 5.52 27.18 -12.3 -13.08 1.32 5.21 -33.35 4.39 71.27 7.45 -3.97 9.18 4.66 1.58 3.01 1.17 0.41 0.74 1.97 0.66 1.24 -0.1 2.28 0.15 0.01 12.04 0.51 0.7 36.6 3.21 -7.03 7.89 -0.62 -8.12 -3.95 61.03 41.39 13.78 25.4 -2.21 17.11 -3.39 -3.73 9.01 -4.22 2.24 4.16 -60.8 -29.88 -7.29 -12.99 -4.57 17.54 5.18
207.83 105.13 57.3 99.18 2.12 -1.0 -10.6 -12.39 5.24 26.34 -11.69 -12.97 1.42 5.51 -34.53 3.84 69.59 6.2 -5.1 8.42 4.72 1.67 2.89 1.19 0.43 0.71 1.99 0.7 1.19 -0.1 2.28 0.15 0.01 12.03 0.51 0.69 36.6 3.2 -7.0 8.0 -0.93 -7.81 -4.36 61.37 41.35 13.29 25.19 -2.23 16.89 -3.61 -3.63 9.04 -4.27 2.35 4.11 -60.56 -29.99 -7.04 -13.16 -4.55 17.99 4.66
209.31 105.38 57.35 99.05 1.98 -0.81 -10.77 -11.05 4.98 25.6 -11.24 -12.85 1.52 5.64 -35.5 3.32 67.52 5.17 -6.04 7.41 4.82 1.82 2.8 1.21 0.47 0.69 2.03 0.78 1.14 -0.02 2.42 0.11 0.12 18.92 0.44 1.94 35.38 2.56 -7.0 7.91 -1.31 -7.47 -4.95 61.8 41.66 12.05 24.93 -2.23 16.3 -4.17 -3.48 9.0 -4.43 3.8 4.01 -58.7 -31.29 -4.88 -14.49 -4.24 21.29 0.44
210.75 105.59 57.36 98.85 1.84 -0.65 -10.77 -9.88 4.74 25.05 -11.05 -12.72 1.78 5.68 -36.21 2.8 65.04 4.55 -6.88 6.18 4.93 1.91 2.72 1.24 0.5 0.66 2.08 0.82 1.11 -0.01 2.42 0.1 0.12 19.17 0.41 1.98 35.34 2.45 -6.9 8.0 -1.57 -7.31 -5.35 62.01 41.65 11.43 24.86 -2.22 15.99 -4.43 -3.44 9.07 -4.5 3.92 3.96 -58.44 -31.47 -4.66 -14.63 -4.18 21.58 0.02
212.13 105.74 57.35 98.6 1.73 -0.55 -10.6 -8.82 4.54 24.6 -10.88 -12.63 2.02 5.63 -36.79 2.29 62.24 4.37 -7.62 4.76 5.09 2.0 2.72 1.28 0.52 0.66 2.15 0.87 1.11 0.02 2.45 0.08 0.13 21.22 0.27 2.43 34.89 2.05 -6.8 8.12 -1.97 -7.08 -5.95 62.15 42.02 9.91 24.83 -2.16 15.17 -5.08 -3.5 9.37 -4.89 5.17 3.97 -56.34 -33.36 -2.87 -15.75 -3.26 23.49 -3.21
213.46 105.84 57.3 98.28 1.65 -0.5 -10.35 -7.92 4.38 24.35 -10.75 -12.59 2.31 5.43 -37.2 1.82 59.13 4.71 -8.27 3.2 5.27 2.06 2.69 1.33 0.54 0.66 2.23 0.89 1.1 0.03 2.45 0.08 0.13 21.42 0.25 2.48 34.84 2.01 -6.75 8.31 -2.18 -6.89 -6.38 62.11 42.09 9.12 24.91 -2.12 14.77 -5.38 -3.53 9.47 -4.99 5.3 3.92 -56.07 -33.59 -2.71 -15.86 -3.11 23.64 -3.49
214.76 105.89 57.19 97.92 1.57 -0.5 -10.08 -7.08 4.23 24.19 -10.63 -12.6 2.63 5.6 -37.6 1.47 55.83 4.83 -8.81 1.84 5.43 2.12 2.77 1.37 0.56 0.67 2.29 0.92 1.13 0.03 2.45 0.07 0.12 21.36 0.21 2.44 34.9 1.87 -6.66 8.61 -2.59 -6.56 -6.98 61.95 42.62 7.45 25.05 -2.03 13.71 -6.12 -3.62 9.88 -5.51 6.33 4.07 -54.11 -35.61 -1.69 -16.76 -1.43 24.77 -5.27
